<svg width="699" height="1040" viewBox="0 0 699 1040" fill="none" xmlns="http://www.w3.org/2000/svg">
<path d="M698.217 336.345V333.934C698.217 148.281 550.146 0 350.312 0C149.274 0 0 150.692 0 336.345V338.756C0 524.409 148.07 672.69 347.904 672.69C548.942 672.69 698.217 521.998 698.217 336.345ZM517.643 338.756C517.643 433.994 455.044 514.765 350.312 514.765C249.191 514.765 180.573 431.583 180.573 336.345V333.934C180.573 238.697 243.172 157.926 347.904 157.926C449.025 157.926 517.643 241.108 517.643 336.345V338.756Z" fill="#08293C"/>
<path fill-rule="evenodd" clip-rule="evenodd" d="M698.217 1056.39V1058.8C698.217 1059.2 698.216 1059.6 698.215 1060H517.644V1058.8C517.644 963.694 449.025 880.63 347.904 880.63C243.172 880.63 180.573 961.286 180.573 1056.39V1058.8C180.573 1059.2 180.575 1059.6 180.577 1060H0V1058.8C0 873.407 149.274 722.93 350.312 722.93C550.146 722.93 698.217 871 698.217 1056.39Z" fill="#7BECA4"/>
</svg>
