<svg width="105" height="41" viewBox="0 0 105 41" fill="none" xmlns="http://www.w3.org/2000/svg">
<g clip-path="url(#clip0_2123_1488)">
<path d="M73.3911 30.3119C74.6998 28.9947 75.3669 27.3675 75.3669 25.4561C75.3669 23.5448 74.6998 21.9434 73.3911 20.6261C72.0825 19.3089 70.4659 18.6373 68.5671 18.6373C66.6683 18.6373 65.0517 19.3089 63.7431 20.6261C62.4345 21.9434 61.793 23.5448 61.793 25.4561C61.793 27.3675 62.4345 28.9947 63.7431 30.3119C65.0517 31.6292 66.6683 32.2749 68.5671 32.2749C70.4659 32.2749 72.0825 31.6292 73.3911 30.3119ZM66.0781 28.0132C65.4366 27.3416 65.1031 26.4893 65.1031 25.4561C65.1031 24.423 65.4366 23.5706 66.0781 22.8991C66.7453 22.2275 67.5664 21.8918 68.5671 21.8918C69.5678 21.8918 70.3889 22.2275 71.0561 22.8991C71.7232 23.5706 72.0568 24.423 72.0568 25.4561C72.0568 26.4893 71.7232 27.3416 71.0561 28.0132C70.3889 28.6847 69.5678 29.0205 68.5671 29.0205C67.5664 29.0205 66.7453 28.6847 66.0781 28.0132Z" fill="white"/>
<path d="M73.3906 45.0623C74.6993 43.745 75.3664 42.1178 75.3664 40.2065C75.3664 38.2952 74.6993 36.6938 73.3906 35.3765C72.082 34.0592 70.4654 33.3877 68.5666 33.3877C66.6678 33.3877 65.0513 34.0592 63.7426 35.3765C62.434 36.6938 61.7925 38.2952 61.7925 40.2065C61.7925 42.1178 62.434 43.745 63.7426 45.0623C65.0513 46.3796 66.6678 47.0253 68.5666 47.0253C70.4654 47.0253 72.082 46.3796 73.3906 45.0623ZM66.0776 42.7636C65.4361 42.092 65.1026 41.2397 65.1026 40.2065C65.1026 39.1733 65.4361 38.321 66.0776 37.6494C66.7448 36.9779 67.5659 36.6421 68.5666 36.6421C69.5674 36.6421 70.3885 36.9779 71.0556 37.6494C71.7228 38.321 72.0563 39.1733 72.0563 40.2065C72.0563 41.2397 71.7228 42.092 71.0556 42.7636C70.3885 43.4351 69.5674 43.7709 68.5666 43.7709C67.5659 43.7709 66.7448 43.4351 66.0776 42.7636Z" fill="#7BECA4"/>
</g>
<path d="M7.17359 11.8845L12.4285 5.427H8.40235L3.90562 11.1786V0.198242H0.533067V18.4989H3.90562V12.5643L8.66378 18.4989H12.5854L7.17359 11.8845Z" fill="white"/>
<path d="M20.7524 5.06099C18.9747 5.06099 17.6675 5.66229 16.857 6.89105V5.427H13.4845V18.4989H16.857V11.4401C16.857 9.27014 17.9812 8.19824 19.7328 8.19824C21.3014 8.19824 22.3211 9.13942 22.3211 10.8911V18.4989H25.6936V10.4728C25.6936 8.77341 25.223 7.46622 24.2818 6.4989C23.3668 5.53158 22.1903 5.06099 20.7524 5.06099Z" fill="white"/>
<path d="M38.9262 16.878C40.2596 15.5446 40.9393 13.8976 40.9393 11.9629C40.9393 10.0283 40.2596 8.40739 38.9262 7.07406C37.5929 5.74073 35.9459 5.06099 34.0112 5.06099C32.0766 5.06099 30.4295 5.74073 29.0962 7.07406C27.7628 8.40739 27.1093 10.0283 27.1093 11.9629C27.1093 13.8976 27.7628 15.5446 29.0962 16.878C30.4295 18.2113 32.0766 18.8649 34.0112 18.8649C35.9459 18.8649 37.5929 18.2113 38.9262 16.878ZM31.4753 14.5512C30.8217 13.8714 30.4818 13.0087 30.4818 11.9629C30.4818 10.9172 30.8217 10.0545 31.4753 9.37471C32.155 8.69497 32.9916 8.35511 34.0112 8.35511C35.0308 8.35511 35.8674 8.69497 36.5472 9.37471C37.2269 10.0545 37.5668 10.9172 37.5668 11.9629C37.5668 13.0087 37.2269 13.8714 36.5472 14.5512C35.8674 15.2309 35.0308 15.5708 34.0112 15.5708C32.9916 15.5708 32.155 15.2309 31.4753 14.5512Z" fill="white"/>
<path d="M54.5137 13.4793L52.1346 5.427H48.945L46.5659 13.4531L44.3437 5.427H40.762L44.9189 18.4989H48.1346L50.5398 10.5773L52.945 18.4989H56.1607L60.3176 5.427H56.7359L54.5137 13.4793Z" fill="white"/>
<path d="M4 29.2701C4 28.6165 4.65359 28.1982 5.51634 28.1982C6.48366 28.1982 7.18954 28.6427 7.60784 29.5316L10.4837 27.9629C9.46405 26.1852 7.63399 25.1917 5.51634 25.1917C4.10458 25.1917 2.9281 25.5577 1.96078 26.3159C1.01961 27.0479 0.54902 28.0675 0.54902 29.3486C0.54902 32.0675 2.98039 32.878 4.91503 33.3747C6.24837 33.7146 7.29412 34.1067 7.29412 34.8126C7.29412 35.5708 6.69281 35.9368 5.4902 35.9368C4.15686 35.9368 3.32026 35.3616 2.9281 34.2375L0 35.8845C0.96732 37.9499 2.79739 38.9956 5.4902 38.9956C6.98039 38.9956 8.23529 38.6296 9.22876 37.9237C10.2484 37.1917 10.7451 36.146 10.7451 34.8126C10.7712 32.0152 8.28758 31.1002 6.37909 30.708C5.04575 30.3682 4 29.976 4 29.2701Z" fill="white"/>
<path d="M23.4641 37.0087C24.7974 35.6754 25.4771 34.0283 25.4771 32.0937C25.4771 30.159 24.7974 28.5381 23.4641 27.2048C22.1307 25.8714 20.4837 25.1917 18.549 25.1917C16.6144 25.1917 14.9673 25.8714 13.634 27.2048C12.3007 28.5381 11.6471 30.159 11.6471 32.0937C11.6471 34.0283 12.3007 35.6754 13.634 37.0087C14.9673 38.342 16.6144 38.9956 18.549 38.9956C20.4837 38.9956 22.1307 38.342 23.4641 37.0087ZM16.0131 34.6819C15.3595 34.0022 15.0196 33.1394 15.0196 32.0937C15.0196 31.0479 15.3595 30.1852 16.0131 29.5054C16.6928 28.8257 17.5294 28.4858 18.549 28.4858C19.5686 28.4858 20.4052 28.8257 21.085 29.5054C21.7647 30.1852 22.1046 31.0479 22.1046 32.0937C22.1046 33.1394 21.7647 34.0022 21.085 34.6819C20.4052 35.3616 19.5686 35.7015 18.549 35.7015C17.5294 35.7015 16.6928 35.3616 16.0131 34.6819Z" fill="white"/>
<path d="M41.1471 25.1917C39.4216 25.1917 38.1144 25.8192 37.2516 27.0741C36.4935 25.8192 35.2908 25.1917 33.6961 25.1917C32.049 25.1917 30.8464 25.7669 30.0621 26.9433V25.5577H26.6895V38.6296H30.0621V31.2832C30.0621 29.3747 31.0294 28.329 32.5196 28.329C33.9052 28.329 34.7157 29.244 34.7157 30.8126V38.6296H38.0882V31.2832C38.0882 29.3747 38.9771 28.329 40.5196 28.329C41.9052 28.329 42.7157 29.244 42.7157 30.8126V38.6296H46.0882V30.5773C46.0882 27.3094 44.1536 25.1917 41.1471 25.1917Z" fill="white"/>
<path d="M60.8742 33.4793C60.9526 32.9826 61.0049 32.5381 61.0049 32.0937C61.0049 30.1329 60.3774 28.512 59.1225 27.1786C57.8938 25.8453 56.299 25.1917 54.3905 25.1917C52.3774 25.1917 50.7042 25.8453 49.4232 27.1786C48.1422 28.4858 47.4886 30.1329 47.4886 32.0937C47.4886 34.0806 48.1422 35.7276 49.4493 37.0348C50.7565 38.342 52.482 38.9956 54.652 38.9956C57.1618 38.9956 59.0703 38.0544 60.3513 36.1982L57.6324 34.6296C56.9788 35.4924 55.9853 35.9368 54.7042 35.9368C52.6912 35.9368 51.4624 35.1263 51.018 33.4793H60.8742ZM50.9657 30.8649C51.3578 29.1917 52.5866 28.2244 54.3905 28.2244C55.933 28.2244 57.2402 29.0871 57.6324 30.8649H50.9657Z" fill="white"/>
<path d="M84.4794 25.1917C82.7016 25.1917 81.3944 25.793 80.5839 27.0218V25.5577H77.2114V38.6296H80.5839V31.5708C80.5839 29.4009 81.7081 28.329 83.4598 28.329C85.0284 28.329 86.048 29.2701 86.048 31.0218V38.6296H89.4205V30.6035C89.4205 28.9041 88.95 27.5969 88.0088 26.6296C87.0938 25.6623 85.9173 25.1917 84.4794 25.1917Z" fill="white"/>
<path d="M104.222 33.4793C104.3 32.9826 104.353 32.5381 104.353 32.0937C104.353 30.1329 103.725 28.512 102.47 27.1786C101.241 25.8453 99.6466 25.1917 97.7382 25.1917C95.7251 25.1917 94.0519 25.8453 92.7708 27.1786C91.4898 28.4858 90.8362 30.1329 90.8362 32.0937C90.8362 34.0806 91.4898 35.7276 92.797 37.0348C94.1042 38.342 95.8297 38.9956 97.9996 38.9956C100.509 38.9956 102.418 38.0544 103.699 36.1982L100.98 34.6296C100.326 35.4924 99.3329 35.9368 98.0519 35.9368C96.0388 35.9368 94.81 35.1263 94.3656 33.4793H104.222ZM94.3133 30.8649C94.7055 29.1917 95.9342 28.2244 97.7382 28.2244C99.2806 28.2244 100.588 29.0871 100.98 30.8649H94.3133Z" fill="white"/>
<defs>
<clipPath id="clip0_2123_1488">
<rect width="13.8562" height="21.4379" fill="white" transform="translate(61.6582 18.5082)"/>
</clipPath>
</defs>
</svg>
