<svg width="1052" height="1052" viewBox="0 0 1052 1052" fill="none" xmlns="http://www.w3.org/2000/svg">
<rect width="1052" height="1052" rx="192" fill="#08293C"/>
<g clip-path="url(#clip0_6256_18222)">
<path d="M338.709 562.376C287.902 512.236 262 450.299 262 377.547C262 304.795 287.902 243.841 338.709 193.701C389.516 143.561 452.278 118 525.998 118C599.718 118 662.48 143.561 713.287 193.701C764.095 243.841 789 304.795 789 377.547C789 450.299 764.095 512.236 713.287 562.376C662.48 612.516 599.718 637.094 525.998 637.094C452.278 637.094 389.516 612.516 338.709 562.376ZM622.631 474.877C647.537 449.316 660.488 416.872 660.488 377.547C660.488 338.222 647.537 305.778 622.631 280.217C596.73 254.655 564.851 241.875 525.998 241.875C487.145 241.875 455.267 254.655 429.365 280.217C403.463 305.778 390.512 338.222 390.512 377.547C390.512 416.872 403.463 449.316 429.365 474.877C455.267 500.439 487.146 513.219 525.998 513.219C564.851 513.219 596.73 500.439 622.631 474.877Z" fill="#7BECA4"/>
<path d="M338.733 1122.76C287.926 1072.62 262.024 1010.68 262.024 937.931C262.024 865.179 287.926 804.225 338.733 754.085C389.541 703.945 452.302 678.384 526.022 678.384C599.743 678.384 662.505 703.945 713.312 754.085C764.119 804.225 789.024 865.179 789.024 937.931C789.024 1010.68 764.119 1072.62 713.312 1122.76C662.505 1172.9 599.743 1197.48 526.022 1197.48C452.302 1197.48 389.541 1172.9 338.733 1122.76ZM622.656 1035.26C647.561 1009.7 660.512 977.256 660.512 937.931C660.512 898.605 647.561 866.162 622.656 840.601C596.754 815.039 564.875 802.259 526.022 802.259C487.17 802.259 455.291 815.039 429.389 840.601C403.488 866.162 390.537 898.605 390.537 937.931C390.537 977.256 403.488 1009.7 429.389 1035.26C455.291 1060.82 487.17 1073.6 526.022 1073.6C564.875 1073.6 596.754 1060.82 622.656 1035.26Z" fill="white"/>
</g>
<defs>
<clipPath id="clip0_6256_18222">
<rect width="527" height="816" fill="white" transform="matrix(-1 8.74228e-08 8.74228e-08 1 789 118)"/>
</clipPath>
</defs>
</svg>
